<svg xmlns="http://www.w3.org/2000/svg" xmlns:xlink="http://www.w3.org/1999/xlink" width="1024" zoomAndPan="magnify" viewBox="0 0 768 767.999994" height="1024" preserveAspectRatio="xMidYMid meet" version="1.0"><defs><g/><clipPath id="106cc440ca"><path d="M 6.03125 6.03125 L 762.03125 6.03125 L 762.03125 762.03125 L 6.03125 762.03125 Z M 6.03125 6.03125 " clip-rule="nonzero"/></clipPath><clipPath id="79e0c9e85d"><rect x="0" width="179" y="0" height="303"/></clipPath></defs><path fill="#000000" d="M 384.03125 606.355469 C 261.421875 606.355469 161.707031 506.640625 161.707031 384.03125 C 161.707031 261.421875 261.421875 161.707031 384.03125 161.707031 C 506.640625 161.707031 606.355469 261.421875 606.355469 384.03125 C 606.355469 506.640625 506.640625 606.355469 384.03125 606.355469 Z M 384.03125 166.796875 C 264.476562 166.796875 166.796875 263.96875 166.796875 384.03125 C 166.796875 504.097656 264.476562 601.265625 384.03125 601.265625 C 503.585938 601.265625 601.265625 503.585938 601.265625 384.03125 C 601.265625 264.476562 503.585938 166.796875 384.03125 166.796875 Z M 384.03125 166.796875 " fill-opacity="1" fill-rule="nonzero"/><path fill="#000000" d="M 384.03125 645.019531 C 240.054688 645.019531 123.042969 528.007812 123.042969 384.03125 C 123.042969 240.054688 240.054688 123.042969 384.03125 123.042969 C 528.007812 123.042969 645.019531 240.054688 645.019531 384.03125 C 645.019531 528.007812 528.007812 645.019531 384.03125 645.019531 Z M 384.03125 128.132812 C 243.109375 128.132812 128.132812 243.109375 128.132812 384.03125 C 128.132812 524.953125 243.109375 639.933594 384.03125 639.933594 C 524.953125 639.933594 639.933594 524.953125 639.933594 384.03125 C 639.933594 243.109375 525.464844 128.132812 384.03125 128.132812 Z M 384.03125 128.132812 " fill-opacity="1" fill-rule="nonzero"/><path fill="#000000" d="M 384.03125 684.191406 C 218.6875 684.191406 83.871094 549.375 83.871094 384.03125 C 83.871094 218.6875 218.6875 83.871094 384.03125 83.871094 C 549.375 83.871094 684.191406 218.6875 684.191406 384.03125 C 684.191406 549.375 549.375 684.191406 384.03125 684.191406 Z M 384.03125 88.957031 C 221.230469 88.957031 88.957031 221.230469 88.957031 384.03125 C 88.957031 546.832031 221.230469 679.105469 384.03125 679.105469 C 546.832031 679.105469 679.105469 546.832031 679.105469 384.03125 C 679.105469 221.230469 546.832031 88.957031 384.03125 88.957031 Z M 384.03125 88.957031 " fill-opacity="1" fill-rule="nonzero"/><path fill="#000000" d="M 384.03125 722.859375 C 197.320312 722.859375 45.207031 570.742188 45.207031 384.03125 C 45.207031 197.320312 197.320312 45.207031 384.03125 45.207031 C 570.742188 45.207031 722.859375 197.320312 722.859375 384.03125 C 722.859375 570.742188 571.25 722.859375 384.03125 722.859375 Z M 384.03125 50.292969 C 199.863281 50.292969 50.292969 199.863281 50.292969 384.03125 C 50.292969 568.199219 199.863281 717.769531 384.03125 717.769531 C 568.199219 717.769531 717.769531 568.199219 717.769531 384.03125 C 717.769531 199.863281 568.199219 50.292969 384.03125 50.292969 Z M 384.03125 50.292969 " fill-opacity="1" fill-rule="nonzero"/><g clip-path="url(#106cc440ca)"><path fill="#000000" d="M 384.03125 762.03125 C 175.445312 762.03125 6.03125 592.617188 6.03125 384.03125 C 6.03125 175.445312 175.445312 6.03125 384.03125 6.03125 C 592.617188 6.03125 762.03125 175.445312 762.03125 384.03125 C 762.03125 592.617188 592.617188 762.03125 384.03125 762.03125 Z M 384.03125 11.121094 C 178.496094 11.121094 11.121094 178.496094 11.121094 384.03125 C 11.121094 589.566406 178.496094 756.945312 384.03125 756.945312 C 589.566406 756.945312 756.945312 589.566406 756.945312 384.03125 C 756.945312 178.496094 589.566406 11.121094 384.03125 11.121094 Z M 384.03125 11.121094 " fill-opacity="1" fill-rule="nonzero"/></g><g transform="matrix(1, 0, 0, 1, 295, 260)"><g clip-path="url(#79e0c9e85d)"><g fill="#000000" fill-opacity="1"><g transform="translate(1.058006, 223.224559)"><g><path d="M 156.265625 -154.4375 C 156.265625 -138.332031 151.984375 -125.332031 143.421875 -115.4375 C 134.859375 -105.550781 123.34375 -99.179688 108.875 -96.328125 L 157.796875 -15.90625 C 158.816406 -13.863281 159.328125 -11.519531 159.328125 -8.875 C 159.328125 -5.601562 157.742188 -2.847656 154.578125 -0.609375 C 151.421875 1.628906 148.617188 2.75 146.171875 2.75 C 141.691406 2.75 138.332031 0.8125 136.09375 -3.0625 L 81.953125 -94.796875 L 46.796875 -94.796875 L 46.796875 -9.78125 C 46.796875 -6.519531 45.570312 -3.5625 43.125 -0.90625 C 40.675781 1.738281 37.71875 3.0625 34.25 3.0625 C 30.988281 3.0625 28.1875 1.785156 25.84375 -0.765625 C 23.5 -3.316406 22.328125 -6.320312 22.328125 -9.78125 L 22.328125 -200.921875 C 22.328125 -204.992188 23.703125 -208.457031 26.453125 -211.3125 C 29.203125 -214.164062 32.515625 -215.59375 36.390625 -215.59375 L 89.609375 -215.59375 C 106.523438 -215.59375 119.820312 -212.585938 129.5 -206.578125 C 139.1875 -200.566406 146.066406 -192.921875 150.140625 -183.640625 C 154.222656 -174.359375 156.265625 -164.625 156.265625 -154.4375 Z M 131.8125 -154.4375 C 131.8125 -160.550781 130.632812 -166.460938 128.28125 -172.171875 C 125.9375 -177.878906 121.65625 -182.566406 115.4375 -186.234375 C 109.21875 -189.910156 100.195312 -191.75 88.375 -191.75 L 46.796875 -191.75 L 46.796875 -118.34375 L 90.21875 -118.34375 C 103.664062 -118.34375 113.957031 -121.398438 121.09375 -127.515625 C 128.238281 -133.640625 131.8125 -142.613281 131.8125 -154.4375 Z M 131.8125 -154.4375 "/></g></g></g></g></g></svg>